<?xml version="1.0" encoding="UTF-8"?>
<svg xmlns="http://www.w3.org/2000/svg" xmlns:xlink="http://www.w3.org/1999/xlink" width="48px" height="87px" viewBox="0 0 48 87" version="1.1">
<g id="surface1">
<path style="fill:none;stroke-width:2;stroke-linecap:butt;stroke-linejoin:miter;stroke:rgb(4.313725%,0.784314%,11.764706%);stroke-opacity:1;stroke-miterlimit:4;" d="M 219.467392 116.999787 C 218.003379 117.820463 219.193895 113.878003 217.762058 115.422803 C 217.038096 116.227387 217.552913 117.949196 218.180347 118.641138 C 218.373404 118.866422 218.469932 119.172163 218.437756 119.477905 C 218.341228 120.282489 218.550373 120.958339 219.06519 121.473273 C 219.258247 121.666373 219.354775 121.972115 219.354775 122.31004 L 219.370863 123.983574 C 219.370863 124.289316 219.209983 124.546783 218.968662 124.611149 C 216.056724 125.303091 216.475014 122.197398 214.496183 120.942248 C 214.238774 120.797423 214.02963 120.556047 213.868749 120.250306 C 212.404736 117.530813 210.232849 121.63419 208.044874 118.576772 C 207.900081 118.351488 207.594408 118.287121 207.337 118.383671 C 206.210836 118.866422 205.197288 118.689413 204.312445 117.868738 C 204.071125 117.659546 203.78154 117.530813 203.443691 117.514721 C 202.510583 117.450354 201.754445 117.015879 201.175275 116.195204 C 200.998306 115.937737 200.692633 115.792912 200.435225 115.857279 C 199.630822 116.002104 198.9873 116.388304 198.504658 116.983696 C 198.32769 117.225071 198.022017 117.321621 197.764608 117.225071 C 196.107538 116.549221 194.707878 115.535445 193.565626 114.167653 C 193.340393 113.894094 193.050808 113.749269 192.761223 113.765361 C 191.892468 113.781453 191.21677 114.119378 190.701952 114.763045 C 190.6376 114.859595 190.524984 114.90787 190.412367 114.923962 C 190.299751 114.923962 190.187135 114.875687 190.106694 114.795228 L 188.192216 112.896411 C 187.983071 112.703311 187.66131 112.622852 187.307373 112.687219 C 185.569863 112.976869 183.86453 112.783769 182.175284 112.107919 C 181.901787 111.995277 181.563938 111.995277 181.242177 112.091827 C 178.877233 112.815952 177.204076 111.995277 176.206616 109.645892 C 176.061824 109.307967 175.836591 109.050501 175.59527 108.937859 C 175.000012 108.616025 174.340402 108.56775 173.61644 108.744759 C 173.326855 108.825217 173.021182 108.728667 172.844213 108.503384 C 171.396288 106.797666 169.674867 106.475833 167.66386 107.537883 C 167.390363 107.666617 167.08469 107.618342 166.907721 107.393058 L 166.00679 106.153999 C 165.84591 105.944807 165.556325 105.880441 165.282828 105.993082 C 162.757004 107.087316 161.083846 98.204712 160.536852 96.482903 C 160.440324 96.144978 160.311619 96.144978 160.182915 96.466811 C 159.201544 98.832288 161.260815 99.669055 160.456412 101.744881 " transform="matrix(0.242804,0,0,0.24275,-10.963428,8.44208)"/>
<path style="fill:none;stroke-width:2;stroke-linecap:butt;stroke-linejoin:miter;stroke:rgb(4.705882%,0.784314%,11.764706%);stroke-opacity:1;stroke-miterlimit:4;" d="M 130.709601 90.979551 C 129.422557 92.057693 128.553802 93.409393 128.087249 95.034652 C 128.055072 95.163386 128.055072 95.163386 128.087249 95.034652 C 128.425098 93.232385 128.022896 91.735859 126.880645 90.577259 C 126.687588 90.384159 126.365827 90.287609 126.027978 90.335884 C 124.499613 90.59335 123.598682 90.078417 123.309097 88.807175 C 123.244744 88.533616 123.11604 88.485341 122.922983 88.694533 C 121.845084 89.853133 120.702832 89.837042 119.528404 88.614075 C 119.447964 88.533616 119.351436 88.485341 119.238819 88.501433 C 119.126203 88.501433 119.013586 88.549708 118.933146 88.646258 C 118.643561 88.952 118.257448 89.016366 117.806982 88.807175 C 117.549574 88.678441 117.243901 88.694533 117.00258 88.85545 C 116.294705 89.370383 115.554655 89.466933 114.782428 89.161191 C 114.52502 89.064641 114.283699 88.823266 114.10673 88.501433 C 112.900126 86.312965 111.033912 85.154365 108.524176 85.025631 C 108.250679 85.00954 107.945006 84.880806 107.687597 84.655523 C 107.285396 84.317598 106.770578 84.124497 106.17532 84.060131 C 105.901823 84.044039 105.67659 83.818756 105.628326 83.545197 C 105.499622 82.724522 105.049156 82.22568 104.293018 82.03258 C 104.035609 81.968213 103.729936 82.096947 103.504703 82.354413 C 102.893357 83.110722 102.137218 83.722206 101.204111 84.156681 C 100.962791 84.269323 100.657118 84.188864 100.464061 83.947489 L 99.595306 82.788889 C 99.418337 82.563605 99.112664 82.41878 98.774815 82.41878 C 96.812073 82.402688 95.010211 81.919938 93.353141 80.986621 C 92.597003 80.552146 92.516563 79.602737 91.277782 79.828021 C 90.956021 79.892387 90.63426 79.828021 90.409028 79.667104 C 89.347216 78.894703 88.269316 78.830337 87.175329 79.457912 C 86.869656 79.63492 86.531807 79.667104 86.290486 79.554462 L 84.617328 78.637237 C 84.376007 78.508503 84.086423 78.57287 83.957718 78.782062 C 83.523341 79.409637 82.960259 79.763654 82.284561 79.811929 C 82.171944 79.811929 82.059328 79.763654 81.994976 79.667104 C 81.914535 79.570554 81.898447 79.44182 81.930623 79.313087 L 84.150775 70.30175 C 84.231215 69.947733 84.118599 69.851183 83.796838 70.028191 L 82.992435 70.462666 " transform="matrix(0.242804,0,0,0.24275,-10.963428,8.44208)"/>
<path style="fill:none;stroke-width:2;stroke-linecap:butt;stroke-linejoin:miter;stroke:rgb(100%,35.294118%,1.568627%);stroke-opacity:1;stroke-miterlimit:4;" d="M 122.005964 210.540689 L 120.976329 211.087805 C 120.735008 211.216539 120.63848 211.522281 120.767184 211.779747 C 122.005964 214.434874 123.888267 214.901532 126.494531 215.834849 C 129.760406 217.009541 132.414935 218.876176 135.664722 220.115235 C 137.032206 220.630168 137.965313 221.80486 139.493678 222.351977 C 144.561415 224.138153 149.275215 226.793279 151.817127 227.903605 C 158.525846 230.896656 163.754463 233.390866 167.454715 235.402325 C 168.854376 236.174725 170.350565 235.93335 171.782402 236.834484 C 173.906025 238.202276 178.153271 241.774628 180.550391 239.634435 C 180.646919 239.553977 180.88824 239.58616 181.145649 239.714893 L 181.62829 239.956269 " transform="matrix(0.242804,0,0,0.24275,-10.963428,8.44208)"/>
<path style="fill:none;stroke-width:2;stroke-linecap:butt;stroke-linejoin:miter;stroke:rgb(100%,31.764706%,4.313725%);stroke-opacity:1;stroke-miterlimit:4;" d="M 188.288744 231.250673 C 188.031335 230.590914 188.031335 229.915064 188.288744 229.223122 C 188.337008 229.094389 188.337008 228.965655 188.272656 228.853014 C 188.224392 228.740372 188.127864 228.643822 188.015247 228.611638 C 186.808643 228.225438 185.907712 227.436946 184.701108 227.211663 C 180.695183 226.455354 177.171899 223.751953 174.453018 222.545077 C 167.326011 219.375018 162.853532 217.18655 161.003406 215.995766 C 159.748538 215.207274 158.541934 214.724524 157.367506 214.563607 C 154.906034 214.20959 153.136348 213.53374 150.996637 213.292365 " transform="matrix(0.242804,0,0,0.24275,-10.963428,8.44208)"/>
<path style=" stroke:none;fill-rule:nonzero;fill:rgb(2.745098%,0.392157%,10.196078%);fill-opacity:1;" d="M 42.324219 36.84375 C 41.96875 37.042969 42.257812 36.085938 41.910156 36.460938 C 41.734375 36.65625 41.859375 37.074219 42.011719 37.242188 C 42.058594 37.296875 42.082031 37.371094 42.074219 37.445312 C 42.050781 37.640625 42.101562 37.804688 42.226562 37.929688 C 42.273438 37.976562 42.296875 38.050781 42.296875 38.132812 L 42.300781 38.539062 C 42.300781 38.613281 42.261719 38.675781 42.203125 38.691406 C 41.496094 38.859375 41.597656 38.105469 41.117188 37.800781 C 41.054688 37.765625 41.003906 37.707031 40.964844 37.632812 C 40.609375 36.972656 40.082031 37.96875 39.550781 37.226562 C 39.515625 37.171875 39.441406 37.15625 39.378906 37.179688 C 39.105469 37.296875 38.859375 37.253906 38.644531 37.054688 C 38.585938 37.003906 38.515625 36.972656 38.433594 36.96875 C 38.207031 36.953125 38.023438 36.847656 37.882812 36.648438 C 37.839844 36.585938 37.765625 36.550781 37.703125 36.566406 C 37.507812 36.601562 37.351562 36.695312 37.234375 36.839844 C 37.191406 36.898438 37.117188 36.921875 37.054688 36.898438 C 36.652344 36.734375 36.3125 36.488281 36.035156 36.15625 C 35.980469 36.089844 35.910156 36.054688 35.839844 36.058594 C 35.628906 36.0625 35.464844 36.144531 35.339844 36.300781 C 35.324219 36.324219 35.296875 36.335938 35.269531 36.339844 C 35.242188 36.339844 35.214844 36.328125 35.195312 36.308594 L 34.730469 35.847656 C 34.679688 35.800781 34.601562 35.78125 34.515625 35.796875 C 34.09375 35.867188 33.679688 35.820312 33.269531 35.65625 C 33.203125 35.628906 33.121094 35.628906 33.042969 35.652344 C 32.46875 35.828125 32.0625 35.628906 31.820312 35.058594 C 31.785156 34.976562 31.730469 34.914062 31.671875 34.886719 C 31.527344 34.808594 31.367188 34.796875 31.191406 34.839844 C 31.121094 34.859375 31.046875 34.835938 31.003906 34.78125 C 30.652344 34.367188 30.234375 34.289062 29.746094 34.546875 C 29.679688 34.578125 29.605469 34.566406 29.5625 34.511719 L 29.34375 34.210938 C 29.304688 34.160156 29.234375 34.144531 29.167969 34.171875 C 28.554688 34.4375 28.148438 32.28125 28.015625 31.863281 C 27.992188 31.78125 27.960938 31.78125 27.929688 31.859375 C 27.691406 32.433594 28.191406 32.636719 27.996094 33.140625 C 27.039062 30.03125 26.109375 26.910156 25.199219 23.785156 C 24.945312 22.910156 24.480469 21.855469 23.429688 22.558594 C 23.179688 22.726562 22.996094 23.007812 22.882812 23.40625 C 22.191406 25.785156 21.492188 28.160156 20.773438 30.527344 C 20.460938 30.789062 20.25 31.117188 20.136719 31.511719 C 20.128906 31.542969 20.128906 31.542969 20.136719 31.511719 C 20.21875 31.074219 20.121094 30.710938 19.84375 30.429688 C 19.796875 30.382812 19.71875 30.359375 19.636719 30.371094 C 19.265625 30.433594 19.046875 30.308594 18.976562 30 C 18.960938 29.933594 18.929688 29.921875 18.882812 29.972656 C 18.621094 30.253906 18.34375 30.25 18.058594 29.953125 C 18.039062 29.933594 18.015625 29.921875 17.988281 29.925781 C 17.960938 29.925781 17.933594 29.9375 17.914062 29.960938 C 17.84375 30.035156 17.75 30.050781 17.640625 30 C 17.578125 29.96875 17.503906 29.972656 17.445312 30.011719 C 17.273438 30.136719 17.09375 30.160156 16.90625 30.085938 C 16.84375 30.0625 16.785156 30.003906 16.742188 29.925781 C 16.449219 29.394531 15.996094 29.113281 15.386719 29.082031 C 15.320312 29.078125 15.246094 29.046875 15.183594 28.992188 C 15.085938 28.910156 14.960938 28.863281 14.816406 28.847656 C 14.75 28.84375 14.695312 28.789062 14.683594 28.722656 C 14.652344 28.523438 14.542969 28.402344 14.359375 28.355469 C 14.296875 28.339844 14.222656 28.371094 14.167969 28.433594 C 14.019531 28.617188 13.835938 28.765625 13.609375 28.871094 C 13.550781 28.898438 13.476562 28.878906 13.429688 28.820312 L 13.21875 28.539062 C 13.175781 28.484375 13.101562 28.449219 13.019531 28.449219 C 12.542969 28.445312 12.105469 28.328125 11.703125 28.101562 C 11.519531 27.996094 11.5 27.765625 11.199219 27.820312 C 11.121094 27.835938 11.042969 27.820312 10.988281 27.78125 C 10.730469 27.59375 10.46875 27.578125 10.203125 27.730469 C 10.128906 27.773438 10.046875 27.78125 9.988281 27.753906 L 9.582031 27.53125 C 9.523438 27.5 9.453125 27.515625 9.421875 27.566406 C 9.316406 27.71875 9.179688 27.804688 9.015625 27.816406 C 8.988281 27.816406 8.960938 27.804688 8.945312 27.78125 C 8.925781 27.757812 8.921875 27.726562 8.929688 27.695312 L 9.46875 25.507812 C 9.488281 25.421875 9.460938 25.398438 9.382812 25.441406 L 9.1875 25.546875 C 11.292969 18.480469 12.625 14.152344 13.183594 12.5625 C 13.890625 10.550781 15.554688 9.59375 17.648438 9.542969 C 21.511719 9.445312 25.371094 9.433594 29.234375 9.503906 C 32.691406 9.566406 34.152344 10.222656 35.15625 13.472656 C 37.566406 21.257812 39.957031 29.046875 42.324219 36.84375 Z M 42.324219 36.84375 "/>
<path style=" stroke:none;fill-rule:nonzero;fill:rgb(6.27451%,1.176471%,13.333333%);fill-opacity:1;" d="M 20.773438 30.527344 L 15 50.183594 C 14.96875 50.292969 14.875 50.378906 14.757812 50.398438 C 9.667969 51.292969 4.796875 52.929688 0.144531 55.300781 C 0.0351562 55.359375 0 55.328125 0.0351562 55.210938 L 9.1875 25.546875 L 9.382812 25.441406 C 9.460938 25.398438 9.488281 25.421875 9.46875 25.507812 L 8.929688 27.695312 C 8.921875 27.726562 8.925781 27.757812 8.945312 27.78125 C 8.960938 27.804688 8.988281 27.816406 9.015625 27.816406 C 9.179688 27.804688 9.316406 27.71875 9.421875 27.566406 C 9.453125 27.515625 9.523438 27.5 9.582031 27.53125 L 9.988281 27.753906 C 10.046875 27.78125 10.128906 27.773438 10.203125 27.730469 C 10.46875 27.578125 10.730469 27.59375 10.988281 27.78125 C 11.042969 27.820312 11.121094 27.835938 11.199219 27.820312 C 11.5 27.765625 11.519531 27.996094 11.703125 28.101562 C 12.105469 28.328125 12.542969 28.445312 13.019531 28.449219 C 13.101562 28.449219 13.175781 28.484375 13.21875 28.539062 L 13.429688 28.820312 C 13.476562 28.878906 13.550781 28.898438 13.609375 28.871094 C 13.835938 28.765625 14.019531 28.617188 14.167969 28.433594 C 14.222656 28.371094 14.296875 28.339844 14.359375 28.355469 C 14.542969 28.402344 14.652344 28.523438 14.683594 28.722656 C 14.695312 28.789062 14.75 28.84375 14.816406 28.847656 C 14.960938 28.863281 15.085938 28.910156 15.183594 28.992188 C 15.246094 29.046875 15.320312 29.078125 15.386719 29.082031 C 15.996094 29.113281 16.449219 29.394531 16.742188 29.925781 C 16.785156 30.003906 16.84375 30.0625 16.90625 30.085938 C 17.09375 30.160156 17.273438 30.136719 17.445312 30.011719 C 17.503906 29.972656 17.578125 29.96875 17.640625 30 C 17.75 30.050781 17.84375 30.035156 17.914062 29.960938 C 17.933594 29.9375 17.960938 29.925781 17.988281 29.925781 C 18.015625 29.921875 18.039062 29.933594 18.058594 29.953125 C 18.34375 30.25 18.621094 30.253906 18.882812 29.972656 C 18.929688 29.921875 18.960938 29.933594 18.976562 30 C 19.046875 30.308594 19.265625 30.433594 19.636719 30.371094 C 19.71875 30.359375 19.796875 30.382812 19.84375 30.429688 C 20.121094 30.710938 20.21875 31.074219 20.136719 31.511719 C 20.128906 31.542969 20.128906 31.542969 20.136719 31.511719 C 20.25 31.117188 20.460938 30.789062 20.773438 30.527344 Z M 20.773438 30.527344 "/>
<path style=" stroke:none;fill-rule:nonzero;fill:rgb(5.882353%,1.176471%,12.941176%);fill-opacity:1;" d="M 42.324219 36.84375 L 47.96875 55.238281 C 48 55.34375 47.96875 55.371094 47.867188 55.320312 C 43.246094 52.957031 38.375 51.3125 33.261719 50.398438 C 33.171875 50.378906 33.097656 50.316406 33.070312 50.226562 L 27.996094 33.140625 C 28.191406 32.636719 27.691406 32.433594 27.929688 31.859375 C 27.960938 31.78125 27.992188 31.78125 28.015625 31.863281 C 28.148438 32.28125 28.554688 34.4375 29.167969 34.171875 C 29.234375 34.144531 29.304688 34.160156 29.34375 34.210938 L 29.5625 34.511719 C 29.605469 34.566406 29.679688 34.578125 29.746094 34.546875 C 30.234375 34.289062 30.652344 34.367188 31.003906 34.78125 C 31.046875 34.835938 31.121094 34.859375 31.191406 34.839844 C 31.367188 34.796875 31.527344 34.808594 31.671875 34.886719 C 31.730469 34.914062 31.785156 34.976562 31.820312 35.058594 C 32.0625 35.628906 32.46875 35.828125 33.042969 35.652344 C 33.121094 35.628906 33.203125 35.628906 33.269531 35.65625 C 33.679688 35.820312 34.09375 35.867188 34.515625 35.796875 C 34.601562 35.78125 34.679688 35.800781 34.730469 35.847656 L 35.195312 36.308594 C 35.214844 36.328125 35.242188 36.339844 35.269531 36.339844 C 35.296875 36.335938 35.324219 36.324219 35.339844 36.300781 C 35.464844 36.144531 35.628906 36.0625 35.839844 36.058594 C 35.910156 36.054688 35.980469 36.089844 36.035156 36.15625 C 36.3125 36.488281 36.652344 36.734375 37.054688 36.898438 C 37.117188 36.921875 37.191406 36.898438 37.234375 36.839844 C 37.351562 36.695312 37.507812 36.601562 37.703125 36.566406 C 37.765625 36.550781 37.839844 36.585938 37.882812 36.648438 C 38.023438 36.847656 38.207031 36.953125 38.433594 36.96875 C 38.515625 36.972656 38.585938 37.003906 38.644531 37.054688 C 38.859375 37.253906 39.105469 37.296875 39.378906 37.179688 C 39.441406 37.15625 39.515625 37.171875 39.550781 37.226562 C 40.082031 37.96875 40.609375 36.972656 40.964844 37.632812 C 41.003906 37.707031 41.054688 37.765625 41.117188 37.800781 C 41.597656 38.105469 41.496094 38.859375 42.203125 38.691406 C 42.261719 38.675781 42.300781 38.613281 42.300781 38.539062 L 42.296875 38.132812 C 42.296875 38.050781 42.273438 37.976562 42.226562 37.929688 C 42.101562 37.804688 42.050781 37.640625 42.074219 37.445312 C 42.082031 37.371094 42.058594 37.296875 42.011719 37.242188 C 41.859375 37.074219 41.734375 36.65625 41.910156 36.460938 C 42.257812 36.085938 41.96875 37.042969 42.324219 36.84375 Z M 42.324219 36.84375 "/>
<path style=" stroke:none;fill-rule:nonzero;fill:rgb(100%,36.470588%,0.392157%);fill-opacity:1;" d="M 18.660156 59.550781 L 18.410156 59.683594 C 18.351562 59.714844 18.328125 59.789062 18.359375 59.851562 C 18.660156 60.496094 19.117188 60.609375 19.75 60.835938 C 20.542969 61.121094 21.1875 61.574219 21.976562 61.875 C 22.308594 62 22.535156 62.285156 22.90625 62.417969 C 24.136719 62.851562 25.28125 63.496094 25.898438 63.765625 C 27.527344 64.492188 28.796875 65.097656 29.695312 65.585938 C 30.035156 65.773438 30.398438 65.714844 30.746094 65.933594 C 31.261719 66.265625 32.292969 67.132812 32.875 66.613281 C 32.898438 66.59375 32.957031 66.601562 33.019531 66.632812 L 33.136719 66.691406 C 31.847656 67.730469 30.507812 68.699219 29.117188 69.59375 C 26.238281 71.449219 25.164062 73.996094 26.609375 77.394531 C 26.667969 77.53125 26.628906 77.566406 26.492188 77.503906 C 24.015625 76.292969 22.492188 74.398438 21.917969 71.808594 C 21.472656 69.78125 22.402344 66.25 19.871094 65.375 C 17.804688 64.664062 15.71875 65.957031 15.398438 68.183594 C 15.371094 68.363281 15.300781 68.382812 15.183594 68.246094 C 12.28125 64.890625 11.621094 60.484375 12.722656 56.257812 C 12.761719 56.121094 12.816406 56.113281 12.898438 56.226562 C 14.160156 58.058594 16.578125 59 18.660156 59.550781 Z M 18.660156 59.550781 "/>
<path style=" stroke:none;fill-rule:nonzero;fill:rgb(100%,29.803922%,5.490196%);fill-opacity:1;" d="M 34.753906 64.578125 C 34.691406 64.417969 34.691406 64.253906 34.753906 64.085938 C 34.765625 64.054688 34.765625 64.023438 34.75 63.996094 C 34.738281 63.96875 34.714844 63.945312 34.6875 63.9375 C 34.394531 63.84375 34.175781 63.652344 33.882812 63.597656 C 32.910156 63.414062 32.054688 62.757812 31.394531 62.464844 C 29.664062 61.695312 28.578125 61.164062 28.128906 60.875 C 27.824219 60.683594 27.53125 60.566406 27.246094 60.527344 C 26.648438 60.441406 26.21875 60.277344 25.699219 60.21875 C 28.992188 60.15625 32.78125 59.425781 35.492188 57.433594 C 35.523438 57.410156 35.5625 57.40625 35.597656 57.417969 C 35.632812 57.429688 35.660156 57.457031 35.667969 57.496094 C 36.359375 60.042969 36.050781 62.402344 34.753906 64.578125 Z M 34.753906 64.578125 "/>
<path style=" stroke:none;fill-rule:nonzero;fill:rgb(100%,33.72549%,2.745098%);fill-opacity:1;" d="M 18.660156 59.550781 C 20.976562 60.09375 23.320312 60.316406 25.699219 60.21875 C 26.21875 60.277344 26.648438 60.441406 27.246094 60.527344 C 27.53125 60.566406 27.824219 60.683594 28.128906 60.875 C 28.578125 61.164062 29.664062 61.695312 31.394531 62.464844 C 32.054688 62.757812 32.910156 63.414062 33.882812 63.597656 C 34.175781 63.652344 34.394531 63.84375 34.6875 63.9375 C 34.714844 63.945312 34.738281 63.96875 34.75 63.996094 C 34.765625 64.023438 34.765625 64.054688 34.753906 64.085938 C 34.691406 64.253906 34.691406 64.417969 34.753906 64.578125 C 34.304688 65.34375 33.765625 66.046875 33.136719 66.691406 L 33.019531 66.632812 C 32.957031 66.601562 32.898438 66.59375 32.875 66.613281 C 32.292969 67.132812 31.261719 66.265625 30.746094 65.933594 C 30.398438 65.714844 30.035156 65.773438 29.695312 65.585938 C 28.796875 65.097656 27.527344 64.492188 25.898438 63.765625 C 25.28125 63.496094 24.136719 62.851562 22.90625 62.417969 C 22.535156 62.285156 22.308594 62 21.976562 61.875 C 21.1875 61.574219 20.542969 61.121094 19.75 60.835938 C 19.117188 60.609375 18.660156 60.496094 18.359375 59.851562 C 18.328125 59.789062 18.351562 59.714844 18.410156 59.683594 Z M 18.660156 59.550781 "/>
</g>
</svg>
