<?xml version="1.0" encoding="utf-8"?>
<!-- Generator: Adobe Illustrator 16.0.2, SVG Export Plug-In . SVG Version: 6.00 Build 0)  -->
<!DOCTYPE svg PUBLIC "-//W3C//DTD SVG 1.1//EN" "http://www.w3.org/Graphics/SVG/1.1/DTD/svg11.dtd">
<svg version="1.1" id="Layer_1" xmlns="http://www.w3.org/2000/svg" xmlns:xlink="http://www.w3.org/1999/xlink" x="0px" y="0px"
	 width="251px" height="155px" viewBox="0 0 251 155" style="enable-background:new 0 0 251 155;" xml:space="preserve">
<g>
	<path d="M103.522,64.15c3.117,0,5.372-1.324,7.059-3.973c1.688-2.648,2.419-6.457,2.419-11.426v-2.355
		c0-5.085-0.702-8.947-2.401-11.584s-4.057-3.955-7.221-3.955c-6.188,0-9.42,4.641-9.772,13.922l-0.017,3.762
		c0,5.016,0.841,8.872,2.505,11.566C97.759,62.802,100.24,64.15,103.522,64.15z"/>
	<path d="M108.194,91H104v33h4.334c3.539,0,6.088-1.466,7.987-3.985s2.679-6.47,2.679-11.438v-2.215c0-4.945-0.78-8.882-2.679-11.39
		S111.827,91,108.194,91z"/>
	<polygon points="193.135,54 204.139,54 198.62,36.246 	"/>
	<path d="M157.073,60.015c1.898-2.52,2.927-6.47,2.927-11.439v-2.215c0-4.945-1.028-8.881-2.927-11.389S152.331,31,148.698,31H145
		v33h3.838C152.377,64,155.175,62.534,157.073,60.015z"/>
	<path d="M0,0v155h251V0H0z M44,41.228V73H32V22h12.284L62,53.744V22h13v51H62.424L44,41.228z M81.405,131.797
		c-1.243,1.113-2.801,1.67-4.676,1.67c-1.898,0-3.463-0.563-4.693-1.688s-1.846-2.543-1.846-4.254s0.615-3.129,1.846-4.254
		s2.795-1.688,4.693-1.688c1.875,0,3.433,0.557,4.676,1.67c1.242,1.113,1.863,2.537,1.863,4.271S82.647,130.684,81.405,131.797z
		 M83.999,62.181C82.112,58.455,81,54.178,81,49.349v-2.883c0-5.015,0.948-9.439,2.788-13.271s4.491-6.791,7.925-8.877
		c3.433-2.086,7.349-3.129,11.731-3.129c4.336,0,8.207,1.032,11.605,3.094c3.398,2.063,6.12,4.998,8.006,8.807
		c1.886,3.809,2.944,8.174,2.944,13.096v2.355c0,4.992-1.003,9.41-2.854,13.254c-1.852,3.844-4.521,6.803-7.931,8.877
		s-7.314,3.111-11.674,3.111s-8.25-1.002-11.625-3.006S85.886,65.908,83.999,62.181z M132,108.576c0,4.688-1.028,8.889-3.009,12.604
		s-4.788,6.581-8.386,8.679c-3.598,2.098-7.63,3.142-12.06,3.142H92V82h16.194c4.523,0,8.59,0.972,12.199,3.022
		c3.609,2.051,6.465,4.919,8.493,8.657s3.114,7.9,3.114,12.541V108.576z M132,22h16.698c4.523,0,8.59,0.972,12.199,3.022
		c3.609,2.051,6.213,4.918,8.241,8.656C171.165,37.417,172,41.58,172,46.22v2.355c0,4.688-0.776,8.889-2.757,12.604
		c-1.98,3.715-4.662,6.582-8.26,8.679C157.385,71.956,153.479,73,149.049,73H132V22z M174,91h-23v11h19v9h-19v13h23v9h-36V82h36V91z
		 M205.155,133h-13.5l-17.086-51h13.676l10.16,37.266L208.6,82h13.781L205.155,133z M210.081,73l-2.988-9h-16.91l-2.953,9h-13.184
		l18.773-51h11.602l18.914,51H210.081z"/>
</g>
</svg>
