<?xml version="1.0" encoding="utf-8"?>
<!-- Generator: Adobe Illustrator 16.0.2, SVG Export Plug-In . SVG Version: 6.00 Build 0)  -->
<!DOCTYPE svg PUBLIC "-//W3C//DTD SVG 1.1//EN" "http://www.w3.org/Graphics/SVG/1.1/DTD/svg11.dtd">
<svg version="1.1" id="Layer_1" xmlns="http://www.w3.org/2000/svg" xmlns:xlink="http://www.w3.org/1999/xlink" x="0px" y="0px"
	 width="200px" height="200px" viewBox="0 0 200 200" style="enable-background:new 0 0 200 200;" xml:space="preserve">
<g>
	<path d="M83.757,59.504c-0.563-1.007-1.266-1.746-2.109-2.215c-0.844-0.469-1.84-0.703-2.988-0.703
		c-1.195,0-2.215,0.234-3.059,0.703c-0.844,0.469-1.541,1.208-2.092,2.215c-0.551,1.008-0.91,2.32-1.167,3.938S72,67.016,72,69.313
		v7.805c0,2.273,0.083,4.213,0.341,5.819c0.258,1.605,0.639,2.924,1.19,3.955s1.249,1.787,2.116,2.268s1.881,0.721,3.053,0.721
		c1.125,0,2.112-0.24,2.968-0.721s1.557-1.236,2.108-2.268s0.744-2.35,1.025-3.955C85.082,81.331,85,79.391,85,77.117v-7.805
		c0-2.297,0.082-4.254-0.2-5.871S84.319,60.512,83.757,59.504z"/>
	<path d="M81.718,114.257c-0.609-0.938-1.418-1.397-2.426-1.831S77.089,112,75.706,112H74v32h1.917c1.758,0,3.193-0.527,4.307-1.301
		s2.184-2.128,2.723-3.921s1.053-4.26,1.053-7.26v-7.84c0-2.25-0.391-4.148-0.684-5.695S82.327,115.194,81.718,114.257z"/>
	<polygon points="157.9,80 165.883,80 161.892,63.062 	"/>
	<path d="M124.081,59.855c-0.609-0.937-1.418-1.697-2.426-2.131c-1.008-0.434-2.203-0.725-3.586-0.725H116v32h2.28
		c1.758,0,3.193-0.229,4.307-1.002s2.002-1.977,2.542-3.77S126,80.118,126,77.117v-7.84c0-2.25-0.209-4.148-0.502-5.695
		S124.69,60.793,124.081,59.855z"/>
	<path d="M0,0v200h200V0H0z M17,119.19v-10.758l26,12.656v1.336v6.715v1.301l-26,12.656v-10.758l15.15-6.66L17,119.19z M53,153H27
		v-9h26V153z M53,99H41.499L29,66.957V99H17V48h11.667L41,79.473V48h12V99z M96,131.519c0,3.398-0.59,6.439-1.551,9.123
		s-2.381,4.963-4.151,6.838s-3.895,3.194-6.32,4.167S78.847,153,75.917,153h-2.355H66.53H62v-51h4.354h7.207h2.145
		c3,0,5.725,0.498,8.174,1.471s4.564,2.407,6.346,4.294s3.262,4.169,4.223,6.841S96,120.327,96,123.749V131.519z M98,77.117
		c0,3.68-0.635,6.915-1.549,9.704s-2.304,5.127-3.992,7.014s-3.73,3.305-6.039,4.254s-4.891,1.424-7.704,1.424
		c-2.836,0-5.425-0.475-7.746-1.424s-4.33-2.367-6.018-4.254s-2.828-4.225-3.742-7.014S60,80.797,60,77.117v-7.734
		c0-3.679,0.294-6.926,1.208-9.738s2.127-5.156,3.803-7.031c1.676-1.875,3.633-3.292,5.954-4.254
		c2.32-0.961,4.878-1.441,7.714-1.441c2.813,0,5.375,0.48,7.707,1.441c2.332,0.961,4.325,2.379,5.989,4.254
		c1.664,1.875,3.135,4.219,4.061,7.031S98,65.704,98,69.383V77.117z M134,112h-18v10h15v10h-15v12h18v9h-18.075h-4.184H104v-51
		h7.741h4.184H134V112z M138,77.117c0,3.398-0.409,6.44-1.37,9.124s-2.291,4.963-4.06,6.838s-3.849,3.394-6.275,4.366
		S121.21,99,118.28,99h-2.355h-7.031H104V48h4.718h7.207h2.145c3,0,5.725,0.297,8.174,1.27c2.449,0.973,4.564,2.308,6.346,4.194
		c1.781,1.887,3.081,4.119,4.042,6.791s1.37,5.671,1.37,9.093V77.117z M168.608,153h-4.466h-4.465h-4.575l-14.594-51h13.868
		l7.495,35.905L169.334,102h13.941L168.608,153z M170.382,99l-2.253-10h-12.474l-2.253,10h-12.938l15.785-51h3.023h5.063h3.164
		l15.82,51H170.382z"/>
</g>
</svg>
