<?xml version="1.0" encoding="UTF-8"?>
<svg xmlns="http://www.w3.org/2000/svg" xmlns:xlink="http://www.w3.org/1999/xlink" width="48px" height="55px" viewBox="0 0 48 54" version="1.1">
<g id="surface1">
<path style=" stroke:none;fill-rule:nonzero;fill:rgb(38.039216%,85.490196%,98.431373%);fill-opacity:1;" d="M 48 27.003906 C 48 23.867188 44.019531 20.890625 37.914062 19.046875 C 39.320312 12.902344 38.695312 8.015625 35.9375 6.449219 C 35.300781 6.082031 34.558594 5.90625 33.746094 5.90625 L 33.746094 8.0625 C 34.195312 8.0625 34.558594 8.148438 34.859375 8.3125 C 36.191406 9.066406 36.769531 11.9375 36.316406 15.625 C 36.210938 16.535156 36.035156 17.488281 35.820312 18.464844 C 33.902344 18.003906 31.808594 17.644531 29.605469 17.414062 C 28.285156 15.625 26.914062 14.003906 25.535156 12.582031 C 28.726562 9.65625 31.71875 8.050781 33.753906 8.050781 L 33.753906 5.898438 C 31.0625 5.898438 27.542969 7.792969 23.980469 11.074219 C 20.417969 7.8125 16.898438 5.9375 14.207031 5.9375 L 14.207031 8.089844 C 16.230469 8.089844 19.234375 9.683594 22.425781 12.59375 C 21.054688 14.011719 19.683594 15.625 18.382812 17.414062 C 16.171875 17.644531 14.078125 18.003906 12.160156 18.476562 C 11.9375 17.507812 11.769531 16.574219 11.652344 15.675781 C 11.191406 11.984375 11.761719 9.113281 13.082031 8.351562 C 13.375 8.179688 13.757812 8.101562 14.207031 8.101562 L 14.207031 5.945312 C 13.382812 5.945312 12.640625 6.121094 11.996094 6.488281 C 9.246094 8.050781 8.628906 12.929688 10.046875 19.054688 C 3.960938 20.910156 0 23.875 0 27.003906 C 0 30.144531 3.980469 33.121094 10.085938 34.964844 C 8.679688 41.109375 9.304688 45.996094 12.0625 47.5625 C 12.699219 47.925781 13.441406 48.101562 14.265625 48.101562 C 16.957031 48.101562 20.476562 46.207031 24.039062 42.925781 C 27.601562 46.1875 31.121094 48.0625 33.8125 48.0625 C 34.636719 48.0625 35.378906 47.890625 36.023438 47.523438 C 38.773438 45.957031 39.390625 41.078125 37.972656 34.953125 C 44.039062 33.109375 48 30.132812 48 27.003906 Z M 35.261719 20.5625 C 34.898438 21.808594 34.449219 23.09375 33.941406 24.378906 C 33.539062 23.605469 33.117188 22.832031 32.660156 22.058594 C 32.207031 21.285156 31.730469 20.53125 31.25 19.796875 C 32.640625 20 33.980469 20.253906 35.261719 20.5625 Z M 30.78125 30.847656 C 30.015625 32.152344 29.234375 33.390625 28.421875 34.539062 C 26.964844 34.664062 25.488281 34.734375 24 34.734375 C 22.523438 34.734375 21.046875 34.664062 19.597656 34.550781 C 18.785156 33.398438 17.992188 32.171875 17.230469 30.878906 C 16.484375 29.613281 15.8125 28.328125 15.195312 27.035156 C 15.800781 25.738281 16.484375 24.445312 17.21875 23.179688 C 17.984375 21.875 18.765625 20.640625 19.578125 19.488281 C 21.035156 19.363281 22.511719 19.296875 24 19.296875 C 25.476562 19.296875 26.953125 19.363281 28.402344 19.480469 C 29.214844 20.628906 30.007812 21.855469 30.769531 23.152344 C 31.515625 24.417969 32.1875 25.699219 32.804688 26.996094 C 32.1875 28.289062 31.515625 29.582031 30.78125 30.847656 Z M 33.941406 29.59375 C 34.46875 30.886719 34.917969 32.183594 35.289062 33.4375 C 34.007812 33.746094 32.660156 34.007812 31.257812 34.210938 C 31.738281 33.46875 32.21875 32.703125 32.667969 31.921875 C 33.117188 31.148438 33.539062 30.367188 33.941406 29.59375 Z M 24.019531 39.902344 C 23.109375 38.972656 22.199219 37.941406 21.300781 36.808594 C 22.179688 36.847656 23.082031 36.878906 23.988281 36.878906 C 24.910156 36.878906 25.820312 36.859375 26.710938 36.808594 C 25.828125 37.941406 24.917969 38.972656 24.019531 39.902344 Z M 16.742188 34.210938 C 15.351562 34.007812 14.011719 33.757812 12.730469 33.449219 C 13.089844 32.203125 13.539062 30.917969 14.050781 29.632812 C 14.449219 30.40625 14.871094 31.179688 15.332031 31.949219 C 15.792969 32.722656 16.261719 33.476562 16.742188 34.210938 Z M 23.96875 14.109375 C 24.878906 15.035156 25.789062 16.070312 26.691406 17.199219 C 25.808594 17.160156 24.910156 17.132812 24 17.132812 C 23.082031 17.132812 22.171875 17.152344 21.28125 17.199219 C 22.160156 16.070312 23.070312 15.035156 23.96875 14.109375 Z M 16.730469 19.796875 C 16.25 20.542969 15.773438 21.304688 15.320312 22.089844 C 14.871094 22.859375 14.449219 23.632812 14.050781 24.40625 C 13.519531 23.113281 13.070312 21.816406 12.699219 20.5625 C 13.980469 20.261719 15.332031 20 16.730469 19.796875 Z M 7.875 31.894531 C 4.414062 30.433594 2.171875 28.519531 2.171875 27.003906 C 2.171875 25.488281 4.414062 23.566406 7.875 22.117188 C 8.71875 21.757812 9.636719 21.441406 10.585938 21.140625 C 11.144531 23.035156 11.878906 25.003906 12.789062 27.023438 C 11.886719 29.035156 11.164062 30.996094 10.617188 32.878906 C 9.648438 32.578125 8.726562 32.25 7.875 31.894531 Z M 13.140625 45.695312 C 11.808594 44.941406 11.230469 42.074219 11.683594 38.382812 C 11.789062 37.476562 11.964844 36.519531 12.179688 35.542969 C 14.097656 36.007812 16.191406 36.363281 18.394531 36.597656 C 19.714844 38.382812 21.085938 40.007812 22.464844 41.425781 C 19.273438 44.355469 16.28125 45.957031 14.246094 45.957031 C 13.804688 45.949219 13.433594 45.859375 13.140625 45.695312 Z M 36.347656 38.335938 C 36.808594 42.027344 36.238281 44.894531 34.917969 45.65625 C 34.625 45.832031 34.242188 45.910156 33.792969 45.910156 C 31.769531 45.910156 28.765625 44.316406 25.574219 41.40625 C 26.945312 39.988281 28.316406 38.375 29.617188 36.585938 C 31.828125 36.355469 33.921875 35.996094 35.839844 35.523438 C 36.0625 36.5 36.238281 37.4375 36.347656 38.335938 Z M 40.113281 31.894531 C 39.273438 32.25 38.351562 32.570312 37.402344 32.867188 C 36.847656 30.976562 36.113281 29.003906 35.203125 26.984375 C 36.101562 24.976562 36.828125 23.015625 37.375 21.132812 C 38.34375 21.429688 39.261719 21.757812 40.125 22.117188 C 43.585938 23.574219 45.828125 25.488281 45.828125 27.003906 C 45.816406 28.519531 43.578125 30.445312 40.113281 31.894531 Z M 40.113281 31.894531 "/>
<path style=" stroke:none;fill-rule:nonzero;fill:rgb(38.039216%,85.490196%,98.431373%);fill-opacity:1;" d="M 28.460938 27.003906 C 28.460938 29.441406 26.460938 31.417969 23.988281 31.417969 C 21.519531 31.417969 19.519531 29.441406 19.519531 27.003906 C 19.519531 24.566406 21.519531 22.589844 23.988281 22.589844 C 26.460938 22.589844 28.460938 24.566406 28.460938 27.003906 Z M 28.460938 27.003906 "/>
</g>
</svg>
